<?xml version="1.0" encoding="utf-8"?>
<svg viewBox="273.186 178.555 82.544 264.957" xmlns="http://www.w3.org/2000/svg">
  <circle cx="305.207" cy="8.675" r="34.139" fill="#6c63ff" style="" transform="matrix(0.480197, 0, 0, 0.51983, 143.020022, 191.791537)"/>
  <path d="M 287.343 205.537 C 286.769 205.537 286.229 205.244 285.885 204.747 L 281.412 198.291 C 280.57 197.076 281.26 195.329 282.653 195.148 C 283.3 195.063 283.939 195.359 284.329 195.923 L 287.256 200.146 L 294.771 187.943 C 295.551 186.68 297.302 186.805 297.923 188.168 C 298.21 188.798 298.165 189.547 297.805 190.133 L 288.861 204.657 C 288.532 205.19 287.986 205.518 287.394 205.536 C 287.377 205.536 287.36 205.537 287.343 205.537 Z" fill="#fff" style=""/>
  <polygon points="332.049 430.904 325.38 433.318 313.602 406.618 323.446 403.054 332.049 430.904" fill="#ffb6b6" style=""/>
  <path d="M 335.913 437.287 L 314.407 443.512 L 314.316 443.218 C 313.568 440.797 313.736 439.766 314.788 437.483 C 315.828 435.211 317.664 433.483 319.887 432.685 L 319.887 432.685 L 322.819 428.037 L 331.145 428.61 L 333.023 427.93 Z" fill="#2f2e41" style=""/>
  <polygon points="348.528 437.692 341.495 437.692 338.149 408.327 348.529 408.327 348.528 437.692" fill="#ffb6b6" style=""/>
  <path d="M 350.322 443.512 L 327.644 443.512 L 327.644 443.201 C 327.645 440.649 328.563 439.808 330.23 438.004 C 331.881 436.206 334.129 435.199 336.471 435.206 L 336.471 435.206 L 340.613 431.804 L 348.342 435.206 L 350.322 435.206 Z" fill="#2f2e41" style=""/>
  <path d="M 295.004 202.412 C 295.62 205.809 298.924 207.776 301.905 206.522 L 310.023 215.698 L 316.378 211.717 L 304.744 198.933 C 303.062 195.034 298.112 194.568 295.833 198.094 C 295.021 199.35 294.722 200.911 295.004 202.412 Z" fill="#ffb6b6" style=""/>
  <polygon points="347.548 248.55 351.208 244.451 330.042 223.23 308.739 202.638 302.839 211.663 325.163 234.221 347.548 248.55" fill="#e4e4e4" style=""/>
  <path d="M 334.543 387.814 C 334.543 382.661 334.637 378.987 334.712 376.035 C 334.934 367.393 334.993 365.07 331.939 350.189 L 331.154 346.367 L 326.527 361.392 C 325.05 366.185 324.295 371.205 324.291 376.257 L 331.425 422.59 L 316.845 422.59 L 306.167 372.5 L 306.162 357.177 C 304.206 354.987 304.206 351.512 306.162 349.321 L 309.71 326.366 L 313.3 295.43 L 352.632 295.43 C 352.632 295.43 359.573 311.005 352.676 326.455 L 352.674 387.833 L 349.11 430.272 L 338.107 430.272 Z" fill="#2f2e41" style=""/>
  <path d="M 350.227 299.175 L 313.438 295.856 L 313.247 295.839 L 316.183 238.629 C 316.536 231.269 320.999 224.887 327.447 222.522 L 327.447 218.518 C 327.45 216.455 328.994 214.783 330.9 214.781 L 336.276 214.781 C 337.585 214.776 338.782 215.577 339.364 216.847 L 341.992 222.538 L 351.931 231.146 C 356.84 235.397 352.89 278.022 352.677 280.271 L 355.081 293.283 C 355.644 296.335 353.492 299.184 350.617 299.192 C 350.488 299.192 350.358 299.186 350.227 299.175 Z" fill="#e4e4e4" style=""/>
  <path d="M 311.267 314.28 C 313.744 312.09 313.791 308.01 311.365 305.755 L 315.014 293.679 L 308.777 289.487 L 303.843 306.62 C 301.459 310.063 303.412 315.009 307.359 315.524 C 308.764 315.707 310.177 315.257 311.267 314.28 Z" fill="#ffb6b6" style=""/>
  <polygon points="324.098 232.183 319.033 230.356 311.717 265.688 304.98 300.825 315.113 302.439 322.971 265.079 324.098 232.183" fill="#e4e4e4" style=""/>
  <circle cx="388.607" cy="12.03" r="25.162" fill="#ffb6b6" style="" transform="matrix(0.480197, 0, 0, 0.51983, 143.020022, 191.791537)"/>
  <path d="M 313.371 191.638 C 313.482 190.399 313.81 189.194 314.338 188.087 C 314.902 189.416 316.664 189.647 317.87 188.985 C 319.076 188.323 319.884 187.067 320.746 185.939 C 323.02 182.963 326.148 180.55 329.691 180.11 C 333.236 179.67 337.142 181.608 338.482 185.187 C 339.082 184.283 340.365 184.183 341.271 184.708 C 342.148 185.306 342.831 186.183 343.229 187.218 C 345.032 191.223 345.21 195.861 343.72 200.014 C 342.228 204.103 338.542 209.611 334.74 211.154 C 332.432 212.091 330.099 210.892 327.644 211.154 C 327.773 208.254 328.293 204.675 328.422 201.774 C 328.492 200.186 328.502 198.408 327.5 197.245 C 326.19 195.9 324.074 196.167 323.086 197.803 C 322.962 196.901 322.681 196.033 322.257 195.245 C 321.814 194.448 320.992 193.992 320.134 194.068 C 319.109 194.25 318.476 195.389 317.535 195.866 C 316.442 196.341 315.19 196.03 314.396 195.087 C 313.635 194.137 313.265 192.891 313.371 191.638 Z" fill="#2f2e41" style=""/>
  <polygon points="331.192 264.92 317.002 295.643 327.645 295.643 331.192 264.92" opacity="0.1" style=""/>
</svg>