<?xml version="1.0" encoding="utf-8"?>
<svg viewBox="47.608 7.773 219.743 486.504" xmlns="http://www.w3.org/2000/svg">
  <path d="M 87.626 244.291 C 83.804 240.804 84.064 234.709 88.169 231.559 L 78.863 203.528 L 93.686 207.51 L 100.25 233.518 C 103.82 238.869 100.259 246.078 93.839 246.494 C 91.554 246.643 89.308 245.846 87.626 244.291 Z" fill="#a0616a"/>
  <path d="M 114.49 91.996 C 116.95 93.405 131.501 89.912 134.343 90.906 C 132.774 100.477 141.294 96.886 132.042 109.455 C 122.79 122.025 104.154 159.713 99.921 173.799 C 95.687 187.885 99.877 207.735 99.243 214.411 C 98.937 218.279 98.956 222.166 99.301 226.031 C 94.302 225.968 89.374 227.005 84.297 226.342 C 78.883 211.022 75.242 189.214 72.77 177.162 C 70.298 165.11 70.208 170.207 71.342 164.18 C 72.475 158.154 72.75 162.533 71.559 156.768 C 70.368 151.002 75.185 143.759 79.635 139.628 C 81.554 134.109 84.034 128.963 85.934 123.501 C 99.855 111.357 100.77 104.342 114.49 91.996 Z" fill="#6c63ff"/>
  <circle cx="248.351" cy="194.961" r="19" fill="#6c63ff"/>
  <path d="M 256.217 188.301 C 255.623 187.735 254.689 187.735 254.095 188.301 C 250.064 191.516 246.443 195.215 243.314 199.314 C 242.545 197.827 241.777 196.341 241.009 194.855 C 240.122 193.139 237.533 194.654 238.419 196.369 C 239.542 198.543 240.666 200.717 241.789 202.891 C 242.381 203.86 243.788 203.86 244.38 202.891 C 247.714 198.195 251.7 193.996 256.217 190.422 C 256.797 189.834 256.797 188.889 256.217 188.301 Z" fill="#fff"/>
  <polygon points="165.023 192.254 178.774 253.62 90.656 248.139 114.618 187.871 165.023 192.254" fill="#a0616a"/>
  <polygon points="150.35 475.482 160.248 475.481 164.957 437.302 150.348 437.302 150.35 475.482" fill="#a0616a"/>
  <path d="M 146.997 470.599 L 162.645 469.665 L 162.645 476.369 L 177.521 486.643 C 180.174 488.475 179.849 492.491 176.936 493.872 C 176.376 494.139 175.762 494.277 175.142 494.277 L 156.513 494.277 L 153.302 487.645 L 152.048 494.277 L 145.024 494.277 Z" fill="#2f2e41"/>
  <polygon points="56.796 470.557 66.47 472.655 79.166 436.342 64.889 433.245 56.796 470.557" fill="#a0616a"/>
  <path d="M 54.556 465.075 L 70.045 467.479 L 68.624 474.031 L 80.984 487.225 C 83.188 489.578 82.019 493.434 78.88 494.166 C 78.275 494.308 77.647 494.312 77.04 494.181 L 58.835 490.231 L 57.103 483.07 L 54.472 489.285 L 47.608 487.796 Z" fill="#2f2e41"/>
  <path d="M 181.024 304.935 C 174.077 343.113 172.34 359.598 172.34 359.598 C 172.34 359.598 177.55 365.671 174.077 369.144 C 170.603 372.618 174.077 379.555 174.077 379.555 L 166.267 463.722 L 159.98 462.703 L 144.834 460.267 L 139.372 459.385 L 142.845 380.428 C 142.845 380.428 139.372 373.481 141.109 371.745 C 142.845 370.008 139.372 359.598 139.372 359.598 L 135.035 277.168 L 108.131 367.408 C 108.131 367.408 110.741 370.881 108.131 373.481 C 105.531 376.082 100.33 389.102 100.33 389.102 L 84.332 445.084 L 82.973 449.838 L 74.629 448.276 L 65.548 446.568 L 63.879 446.258 L 60.91 445.695 L 58.999 445.336 L 58.349 445.219 L 55.206 444.628 L 56.156 440.407 L 56.651 438.185 L 70.186 378.071 L 70.496 376.683 L 70.826 375.218 C 70.826 375.218 69.089 370.881 71.69 368.271 C 73.234 366.657 73.883 364.385 73.426 362.198 C 73.341 362.107 73.263 362.01 73.193 361.907 C 72.886 361.485 72.674 361.002 72.573 360.49 C 72.34 359.404 72.543 357.88 74.3 356.124 C 74.794 355.599 75.209 355.004 75.532 354.358 C 78.171 349.362 79.5 338.777 79.5 338.777 C 79.5 338.777 81.848 254.94 89.532 242.133 C 89.939 241.464 98.097 228.612 98.524 228.35 C 107.197 223.149 174.774 230.332 174.774 230.332 C 174.774 230.332 178.867 241.328 179.051 242.473 C 180.051 248.905 186.913 272.549 181.024 304.935 Z" fill="#2f2e41"/>
  <path d="M 160.49 102.996 C 160.49 102.996 161.952 95.405 147.902 81.355 C 140.463 78.875 127.575 80.32 123.107 81.355 C 102.444 108.629 106.144 103.817 100.765 119.056 C 99.37 123.008 98.673 126.805 99.293 129.904 C 101.772 142.302 105.798 205.941 104.971 209.247 C 104.145 212.553 98.359 216.686 104.145 216.686 C 109.93 216.686 184.54 215.38 182.887 212.9 C 181.234 210.421 160.49 102.996 160.49 102.996 Z" fill="#6c63ff"/>
  <path d="M 125.386 98.11 C 127.744 96.536 130.422 95.797 132.578 93.695 C 140.449 99.363 141.028 90.135 148.161 104.017 C 155.294 117.9 180.737 151.371 191.462 161.435 C 202.188 171.5 221.827 176.59 227.522 180.131 C 230.848 182.128 234.337 183.842 237.951 185.255 C 235.667 189.703 234.402 194.576 231.547 198.827 C 215.418 196.851 194.272 190.397 182.38 187.242 C 170.489 184.087 175.012 186.438 170.121 182.739 C 165.23 179.039 169.273 180.744 163.581 179.243 C 157.889 177.741 153.549 170.202 151.833 164.378 C 147.746 160.201 144.243 155.689 140.199 151.555 C 135.527 133.682 130.329 115.893 125.386 98.11 Z" fill="#6c63ff"/>
  <circle cx="143.85" cy="46.844" r="23.933" fill="#a0616a"/>
  <path d="M 159.841 90.591 C 158.706 88.971 150.225 72.908 147.704 66.834 C 147.444 68.149 147.281 69.481 147.214 70.821 L 147.189 71.32 L 146.693 71.384 C 145.948 71.479 128.346 73.615 119.185 63.228 C 113.758 57.075 112.527 47.846 115.522 35.792 C 114.977 35.685 114.456 35.484 113.98 35.198 C 112.376 34.089 111.344 32.329 111.156 30.388 L 110.649 30.524 C 94.352 22.593 108.392 -0.605 123.278 10.929 C 124.584 10.637 125.945 10.715 127.209 11.154 C 129.692 12.165 131.42 14.456 131.71 17.12 C 139.401 13.075 149.58 13.733 154.844 16.769 C 157.049 18.04 158.314 19.64 158.539 21.426 C 164.757 21.773 171.445 27.831 171.445 36.412 L 171.445 37.01 L 170.848 37.01 C 165.75 37.118 161.128 40.03 158.829 44.581 C 155.714 50.208 155.921 57.088 159.369 62.517 C 163.091 68.229 164.349 75.202 162.859 81.855 L 160.613 91.694 Z" fill="#2f2e41"/>
</svg>