<?xml version="1.0" encoding="utf-8"?>
<svg viewBox="141.275 40.416 199.665 423.451" xmlns="http://www.w3.org/2000/svg">
  <polygon points="277.62 452.43 265.71 452.429 260.044 406.918 277.622 406.919 277.62 452.43" fill="#ffb8b8" style=""/>
  <path d="M 280.658 463.867 L 242.255 463.865 L 242.255 463.384 C 242.255 455.206 248.947 448.576 257.202 448.575 L 257.203 448.575 L 280.658 448.577 Z" fill="#2f2e41" style=""/>
  <polygon points="330.185 423.421 322.455 432.397 283.831 407.126 295.241 393.879 330.185 423.421" fill="#ffb8b8" style=""/>
  <path d="M 340.94 428.556 L 316.011 457.497 L 315.643 457.185 C 309.363 451.876 308.616 442.529 313.974 436.307 L 313.975 436.307 L 329.2 418.631 Z" fill="#2f2e41" style=""/>
  <polygon points="193.054 228.611 189.347 262.485 339.215 260.367 273.857 154.862 220.493 152.963 193.054 228.611" fill="#2f2e41" style=""/>
  <polygon points="193.054 228.611 189.347 262.485 339.215 260.367 273.857 154.862 220.493 152.963 193.054 228.611" opacity="0.28" style=""/>
  <path d="M 222.524 234.427 L 217.233 265.42 L 217.233 293.124 L 259.892 306.919 C 259.892 306.919 254.899 414.525 261.556 421.38 L 261.393 437.924 L 280.002 438.762 L 280.154 427.118 L 288.044 340.085 L 292.691 276.184 L 285.156 227.737 Z" fill="#2f2e41" style=""/>
  <path d="M 255.575 261.106 L 217.233 293.124 C 217.233 293.124 214.989 350.891 220.688 357.666 C 225.582 363.484 289.238 413.673 289.238 413.673 C 289.238 413.673 300.551 423.953 306.891 424.117 C 313.231 424.282 320.606 411.107 320.606 411.107 L 305.922 400.055 C 305.922 400.055 267.882 364.878 256.588 350.891 C 252.029 345.245 252.029 344.681 252.029 344.681 L 253.586 321.204 L 269.257 277.634 Z" fill="#2f2e41" style=""/>
  <polygon points="214.868 107.74 198.338 106.227 183.343 108.703 151.593 108.713 148.888 131.51 177.863 137.934 184.923 134.506 214.356 145.615 214.868 107.74" fill="#2f2e41" style=""/>
  <path d="M 234.612 107.668 C 234.612 107.668 269.694 104.412 277.672 110.622 C 285.65 116.832 302.745 239.902 302.745 239.902 L 234.612 243.712 L 222.398 235.386 L 225.865 173.944 Z" fill="#ccc" style=""/>
  <polygon points="245.321 106.902 206.622 107.744 170.541 269.258 199.034 275.469 245.321 106.902" fill="#2f2e41" style=""/>
  <polygon points="272.831 105.537 303.315 114.989 301.583 181.351 339.215 260.69 294.976 265.307 260.007 179.635 272.831 105.537" fill="#2f2e41" style=""/>
  <path d="M 323.098 268.749 C 327.649 264.78 327.473 257.7 322.73 253.959 L 328.862 232.764 L 316.77 225.931 L 308.534 255.982 C 304.239 262.119 308.261 270.561 315.773 271.178 C 318.447 271.396 321.095 270.519 323.098 268.749 Z" fill="#ffb8b8" style=""/>
  <path d="M 285.65 116.832 L 303.688 115.282 C 303.688 115.282 319.881 132.061 323.565 145.052 C 327.248 158.043 331.238 198.69 331.238 198.69 L 329.574 258.154 L 308.489 243.968 L 307.075 192.823 Z" fill="#2f2e41" style=""/>
  <circle cx="900.239" cy="279.072" r="30.227" transform="matrix(0.405744, -0.735335, 0.742238, 0.40197, -313.5398, 624.592172)" fill="#ffb8b8" style=""/>
  <path d="M 256.013 64.22 C 252.658 63.451 249.175 64.303 245.778 64.854 C 242.38 65.406 238.635 65.587 235.761 63.709 C 233.639 62.322 232.333 60.028 231.109 57.821 C 230.597 57.032 230.256 56.148 230.108 55.222 C 229.963 53.589 231.011 52.1 232.125 50.888 C 237.295 45.258 244.85 42.176 252.469 41.197 C 258.753 40.27 265.173 41.047 271.046 43.445 C 276.83 45.958 281.802 50.561 284.075 56.398 C 285.123 59.385 285.777 62.494 286.022 65.648 C 286.365 67.967 286.409 70.322 286.153 72.653 C 285.847 74.381 285.388 76.079 284.783 77.728 L 281.016 88.996 C 280.745 90.06 280.239 91.053 279.535 91.901 C 278.791 92.753 277.57 93.019 276.534 92.552 C 276.835 91.328 276.881 90.056 276.669 88.814 C 276.428 87.547 275.433 86.553 274.157 86.304 C 272.768 86.158 271.582 87.225 270.265 87.684 C 267.73 88.428 265.066 86.996 264.315 84.484 C 264.279 84.364 264.248 84.242 264.221 84.119 C 264.013 82.831 264.363 81.452 263.869 80.242 C 263.293 78.825 261.761 78.082 260.61 77.063 C 258.468 75.104 257.665 72.091 258.552 69.339 C 258.86 68.402 259.73 67.976 259.556 66.898 C 259.328 65.485 257.224 64.496 256.013 64.22 Z" fill="#2f2e41" style=""/>
  <circle cx="178.075" cy="109.124" r="12" fill="#ffb8b8" style="" transform="matrix(0.845899, 0, 0, 0.838032, 0.791937, 28.022444)"/>
</svg>