<?xml version="1.0" encoding="utf-8"?>
<svg viewBox="165.779 61.939 164.101 394.469" xmlns="http://www.w3.org/2000/svg" xmlns:xlink="http://www.w3.org/1999/xlink">
  <defs>
    <linearGradient id="b132325f-90da-4467-80cc-a4bbc4b46cc2" x1="844.73" y1="797.04" x2="844.73" y2="293.44" gradientTransform="matrix(0.7946, 0, 0, 0.783144, -422.535172, -167.810357)" xlink:href="#f4caf367-5268-4839-9f22-5ce9a5de7b1c"/>
    <linearGradient id="f4caf367-5268-4839-9f22-5ce9a5de7b1c" x1="613.8" y1="704.36" x2="613.8" y2="170.99" gradientUnits="userSpaceOnUse">
      <stop offset="0" stop-color="gray" stop-opacity="0.25"/>
      <stop offset="0.54" stop-color="gray" stop-opacity="0.12"/>
      <stop offset="1" stop-color="gray" stop-opacity="0.1"/>
    </linearGradient>
  </defs>
  <ellipse cx="166.907" cy="422.727" rx="1.128" ry="1.449" fill="#3f3d56" style=""/>
  <ellipse cx="166.907" cy="420.95" rx="1.128" ry="1.449" fill="#3f3d56" style=""/>
  <path d="M 327.544 127.803 L 290.483 127.803 C 289.328 127.805 288.333 128.607 288.1 129.722 L 278.072 178.48 C 278.056 178.613 278.056 178.747 278.072 178.88 L 277.118 178.982 L 276.268 179.068 C 276.216 179.058 276.166 179.046 276.117 179.029 C 275.853 178.845 275.68 178.561 275.64 178.245 C 275.153 176.509 274.8 174.74 274.584 172.951 C 274.46 170.99 274.46 169.024 274.584 167.062 C 274.631 165.496 274.584 163.969 274.584 162.426 C 274.847 160.69 275.003 158.941 275.052 157.187 C 275.147 155.316 274.959 153.442 274.496 151.626 C 274.203 150.641 273.831 149.68 273.384 148.752 C 273.034 146.121 272.653 143.482 272.263 140.858 C 271.969 138.908 271.675 136.942 271.286 135.016 C 271.373 134.695 271.445 134.374 271.501 134.045 C 271.937 130.802 270.604 127.571 267.996 125.548 C 267.201 124.911 266.321 124.384 265.382 123.981 C 264.603 123.666 263.806 123.392 262.998 123.159 L 250.213 119.243 C 249.029 117.544 247.829 115.829 246.765 114.075 C 245.727 112.494 244.82 110.834 244.055 109.109 C 252.672 103.05 254.99 91.414 249.339 82.592 C 249.125 82.263 248.902 81.934 248.672 81.621 C 248.765 80.106 248.584 78.587 248.139 77.134 C 248.04 76.595 247.878 76.069 247.655 75.567 C 247.309 74.888 246.867 74.26 246.343 73.703 C 246.24 73.586 246.121 73.476 246.01 73.359 C 244.962 72.226 243.79 71.211 242.514 70.336 C 238.27 67.305 232.581 63.624 227.376 62.387 C 224.804 61.811 222.135 61.797 219.558 62.348 L 219.16 62.238 L 218.405 62.089 C 218.596 62.168 218.779 62.269 218.97 62.356 C 216.239 61.754 213.403 61.805 210.698 62.504 C 207.329 63.491 206.153 66.123 204.73 68.997 C 202.421 73.622 198.919 77.568 194.575 80.438 C 191.778 82.287 188.465 83.884 187.122 86.915 C 185.866 89.742 186.717 92.977 187.011 96.054 C 187.735 104.538 184.061 112.808 177.245 118.037 C 173.423 120.935 168.322 123.363 167.503 128.03 C 166.923 131.359 168.83 134.538 170.268 137.608 C 173.312 144.077 174.353 151.979 170.777 158.189 C 169.768 159.951 168.393 161.564 167.853 163.514 C 166.899 166.984 168.926 170.759 171.961 172.779 C 174.996 174.8 178.802 175.34 182.474 175.324 C 183.101 175.324 183.737 175.324 184.381 175.238 C 184.063 178.269 183.665 181.3 183.165 184.307 C 182.426 188.747 181.48 193.203 181.766 197.691 C 181.917 200.119 182.481 202.632 184.079 204.504 C 186.59 207.457 190.96 208.06 194.877 207.911 C 201.075 207.676 207.17 206.086 213.336 205.734 C 213.22 205.98 213.16 206.247 213.161 206.517 C 213.161 207.574 213.821 208.741 213.519 209.79 C 213.391 210.158 213.202 210.502 212.962 210.809 C 211.373 213.111 209.49 215.68 210.038 218.413 C 210.308 219.744 211.151 221.076 210.761 222.383 C 210.515 222.994 210.172 223.563 209.744 224.067 C 207.567 227.262 208.02 231.468 208.568 235.282 L 209.299 235.485 C 209.093 235.924 208.886 236.37 208.695 236.817 C 207.804 238.796 207.29 240.92 207.178 243.082 C 207.238 245.51 207.656 247.915 208.417 250.224 C 209.498 254.14 210.618 258.056 212.041 261.838 C 213.248 265.088 214.671 268.244 216.077 271.408 C 216.522 272.379 216.959 273.358 217.396 274.337 C 220.108 280.394 222.826 286.456 225.549 292.522 C 225.89 293.218 226.157 293.948 226.343 294.699 C 226.486 295.341 226.518 295.991 226.622 296.641 C 227.051 299.163 228.719 301.285 229.943 303.548 C 234.067 311.184 233.042 320.394 231.921 328.969 C 232.533 329.572 233.22 330.099 233.964 330.536 C 233.844 331.397 233.725 332.266 233.542 333.097 C 232.454 337.991 231.159 342.847 230.404 347.82 C 230.023 350.237 229.837 352.681 229.848 355.126 C 229.848 357.476 230.698 359.864 230.698 362.175 C 231.278 364.524 232.16 366.764 232.78 369.09 C 233.034 372.7 233.463 376.31 234.011 379.913 C 234.191 383.182 234.377 386.452 234.568 389.726 C 234.734 392.623 234.869 395.67 233.55 398.27 C 233.55 398.356 233.455 398.442 233.407 398.528 C 231.064 398.372 228.804 399.413 227.424 401.285 C 226.034 403.278 225.233 405.613 225.112 408.028 C 224.943 409.047 225.061 410.093 225.453 411.051 C 225.835 411.834 226.502 412.359 226.939 413.079 C 227.368 413.917 227.637 414.825 227.734 415.757 C 228.624 421.177 229.522 426.612 229.999 432.086 C 230.142 433.754 230.277 435.516 231.27 436.879 C 232.263 438.241 234.448 438.907 235.696 437.756 C 234.436 431.484 233.813 425.103 233.836 418.71 C 234.253 418.651 234.676 418.651 235.092 418.71 C 235.338 419.814 235.68 420.911 235.998 421.999 C 236.21 422.799 236.475 423.583 236.792 424.349 C 236.665 425.421 236.792 427.035 236.745 427.818 C 236.681 431.279 236.681 434.738 236.745 438.195 C 236.792 440.168 236.864 442.142 236.959 444.115 C 236.95 444.334 236.993 444.551 237.086 444.749 C 237.147 444.825 237.242 444.867 237.341 444.859 C 238.008 444.859 238.684 444.859 239.351 444.859 C 239.423 444.078 239.452 443.294 239.438 442.51 C 239.438 440.708 239.438 438.913 239.438 437.122 C 239.438 435.587 239.438 434.052 239.438 432.517 C 239.907 435.266 240.575 437.999 241.25 440.701 L 242.68 446.48 L 242.823 447.06 L 244.039 451.954 C 244.076 452.131 244.135 452.301 244.214 452.463 C 244.368 452.701 244.571 452.904 244.81 453.059 C 249.926 456.726 256.636 457.436 262.426 454.922 C 262.645 454.836 262.847 454.711 263.022 454.554 C 263.34 454.135 263.485 453.611 263.427 453.09 C 263.351 451.528 263.663 449.972 264.333 448.556 C 264.699 448.033 264.998 447.468 265.223 446.872 C 265.359 445.907 265.169 444.924 264.683 444.076 L 263.372 441.061 C 263.992 441.037 264.611 440.975 265.223 440.873 C 266.153 440.09 265.477 438.469 266.248 437.544 C 266.568 437.258 266.911 436.996 267.273 436.761 C 268.243 435.923 268.147 434.412 267.71 433.214 C 266.296 429.353 262.514 426.894 258.97 424.717 L 258.509 424.435 C 255.616 411.121 250.515 398.004 251.874 384.494 C 252.168 381.612 252.756 378.762 253.233 375.88 C 255.616 361.705 255.465 347.162 258.215 333.057 C 259.634 332.978 261.016 332.577 262.251 331.883 C 264.58 330.457 265.716 327.701 266.026 325.03 C 266.336 322.36 265.962 319.666 266.026 316.972 C 266.097 313.111 267.035 309.32 267.972 305.553 C 269.069 301.16 267.178 296.5 268.322 292.122 C 268.757 290.775 269.102 289.403 269.355 288.011 C 269.593 286.045 269.196 283.97 269.903 282.106 C 270.221 281.252 270.769 280.493 271.135 279.655 C 272.724 276.115 270.976 271.823 272.573 268.268 C 273.089 267.443 273.472 266.546 273.709 265.605 C 273.764 264.874 273.67 264.139 273.431 263.444 C 273.026 261.815 272.637 260.17 272.375 258.518 C 272.256 257.948 272.205 257.368 272.224 256.787 C 272.301 256.171 272.442 255.565 272.645 254.978 C 273.853 250.859 274.003 246.512 274.139 242.213 C 274.21 239.934 274.274 237.514 273.296 235.462 C 273.005 234.842 272.63 234.262 272.184 233.739 L 272.303 233.676 C 271.691 231.225 271.207 228.374 272.096 226.002 C 272.47 224.991 273.114 224.02 272.994 222.947 C 272.875 221.874 272.128 221.138 271.826 220.183 C 271.31 218.616 272.096 216.925 272.557 215.312 C 273.352 212.555 273.169 209.626 272.986 206.76 C 272.995 206.143 272.853 205.533 272.573 204.982 C 272.367 204.645 272.057 204.387 271.858 204.042 C 271.454 203.195 271.475 202.21 271.914 201.379 C 272.355 200.57 272.714 199.721 272.986 198.842 C 273.03 198.57 273.03 198.292 272.986 198.02 C 273.574 197.769 274.099 197.393 274.663 197.096 C 277.047 195.843 279.868 196.031 282.553 195.96 C 285.239 195.89 288.227 195.365 289.832 193.258 C 289.99 192.994 290.207 192.77 290.468 192.6 C 290.553 192.558 290.643 192.526 290.738 192.506 C 291.715 192.64 292.327 192.632 292.192 192.381 C 292.637 192.185 292.843 191.708 293.106 191.308 C 293.172 191.204 293.246 191.105 293.328 191.011 C 294.325 190.425 295.366 189.917 296.443 189.491 C 296.25 189.469 296.055 189.469 295.863 189.491 C 297.519 188.963 299.256 188.724 300.996 188.786 C 302.657 188.786 305.517 189.014 306.813 187.745 C 309.196 186.249 309.904 183.25 311.008 180.697 C 311.375 179.87 311.786 179.061 312.24 178.277 L 318.414 177.681 C 319.478 177.577 320.349 176.803 320.567 175.771 L 329.832 130.669 C 330.126 129.224 329.038 127.861 327.544 127.803 Z M 210.618 189.671 C 207.844 190.854 204.698 190.854 201.925 189.671 C 201.512 189.491 201.059 188.99 201.393 188.693 C 201.727 188.395 201.997 188.646 202.267 188.52 C 202.784 188.27 202.41 187.518 202.124 187.032 C 201.329 185.623 201.878 183.837 202.664 182.412 C 203.451 180.986 204.46 179.577 204.492 177.956 C 204.443 177.435 204.443 176.911 204.492 176.389 C 204.744 175.65 205.143 174.969 205.668 174.384 C 205.811 174.181 205.93 173.962 206.057 173.742 C 206.272 174.071 206.486 174.392 206.709 174.713 C 207.424 175.794 208.136 176.883 208.846 177.979 C 209.413 178.718 209.772 179.59 209.887 180.509 C 209.807 181.052 209.837 181.606 209.975 182.138 C 210.292 182.827 211.278 183.398 210.912 184.064 C 210.546 184.789 210.546 185.641 210.912 186.367 C 211.286 187.001 211.842 187.526 212.215 188.152 C 212.321 188.341 212.412 188.537 212.486 188.739 C 211.882 189.053 211.254 189.397 210.618 189.671 Z M 287.694 181.221 C 287.226 181.331 286.757 181.441 286.288 181.566 C 286.224 181.284 286.201 181.127 286.201 181.127 L 283.721 181.856 C 282.777 181.897 281.837 181.706 280.988 181.3 L 291.222 180.313 C 290.054 180.642 288.878 180.947 287.694 181.221 Z" fill="url(#b132325f-90da-4467-80cc-a4bbc4b46cc2)" style=""/>
  <path d="M 212.382 71.049 C 210.104 75.644 206.644 79.57 202.346 82.435 C 199.573 84.276 196.3 85.858 194.973 88.873 C 193.733 91.684 194.575 94.911 194.861 97.965 C 195.575 106.349 191.972 114.526 185.271 119.737 C 181.496 122.626 176.45 125.039 175.64 129.683 C 175.068 132.987 176.959 136.159 178.381 139.206 C 181.385 145.643 182.418 153.506 178.882 159.677 C 177.881 161.431 176.498 163.037 175.99 164.979 C 175.044 168.433 177.046 172.184 180.05 174.189 C 183.054 176.194 186.82 176.742 190.443 176.726 C 193.074 176.726 195.926 176.334 197.801 174.51 C 199.057 173.288 199.677 171.589 200.265 169.952 L 204.834 157.194 C 205.628 154.892 206.534 152.496 208.266 150.773 C 211.945 147.076 217.937 147.468 223.189 147.53 C 230.919 147.622 238.61 146.428 245.938 143.998 C 250.229 142.565 254.885 140.138 255.887 135.791 C 256.888 131.445 253.916 127.49 251.318 123.966 C 249.373 121.355 247.535 118.654 245.803 115.86 C 244.111 113.166 242.498 110.323 242.029 107.191 C 241.234 101.983 243.737 96.924 245.652 92.013 C 247.567 87.103 248.91 81.292 246.121 76.805 C 244.916 75.057 243.38 73.555 241.6 72.38 C 237.404 69.365 231.778 65.708 226.637 64.478 C 223.881 63.84 221.008 63.878 218.27 64.588 C 214.941 65.606 213.773 68.221 212.382 71.049 Z" fill="#3f3d56" style=""/>
  <path d="M 268.799 131.922 C 269.829 135.379 270.56 138.916 270.984 142.495 C 272.255 151.109 273.535 159.834 273.296 168.566 C 273.181 170.514 273.181 172.467 273.296 174.416 C 273.517 176.196 273.87 177.957 274.353 179.686 C 274.387 180.002 274.558 180.287 274.822 180.469 C 275.124 180.618 275.481 180.469 275.815 180.43 C 276.951 180.297 277.794 181.378 278.668 182.106 C 280.427 183.507 282.882 183.688 284.834 182.56 C 284.234 185.183 285.266 187.907 287.464 189.499 C 289.687 191.028 292.473 191.528 295.1 190.87 C 293.781 190.666 292.518 191.574 291.795 192.679 C 291.54 193.07 291.334 193.548 290.897 193.744 C 290.46 193.94 289.705 193.689 289.188 193.955 C 288.932 194.127 288.718 194.352 288.561 194.613 C 286.971 196.712 284.023 197.229 281.369 197.299 C 278.715 197.37 275.903 197.19 273.566 198.435 C 272.986 198.74 272.446 199.132 271.842 199.382 C 269.999 200.166 267.798 199.382 266.367 198.043 C 265.003 196.6 264.034 194.837 263.555 192.921 C 261.171 185.341 261.647 177.219 262.132 169.302 C 262.903 156.717 264.524 143.826 268.799 131.922 Z" fill="#454b69" style=""/>
  <path d="M 268.799 131.922 C 269.829 135.379 270.56 138.916 270.984 142.495 C 272.255 151.109 273.535 159.834 273.296 168.566 C 273.181 170.514 273.181 172.467 273.296 174.416 C 273.517 176.196 273.87 177.957 274.353 179.686 C 274.387 180.002 274.558 180.287 274.822 180.469 C 275.124 180.618 275.481 180.469 275.815 180.43 C 276.951 180.297 277.794 181.378 278.668 182.106 C 280.427 183.507 282.882 183.688 284.834 182.56 C 284.234 185.183 285.266 187.907 287.464 189.499 C 289.687 191.028 292.473 191.528 295.1 190.87 C 293.781 190.666 292.518 191.574 291.795 192.679 C 291.54 193.07 291.334 193.548 290.897 193.744 C 290.46 193.94 289.705 193.689 289.188 193.955 C 288.932 194.127 288.718 194.352 288.561 194.613 C 286.971 196.712 284.023 197.229 281.369 197.299 C 278.715 197.37 275.903 197.19 273.566 198.435 C 272.986 198.74 272.446 199.132 271.842 199.382 C 269.999 200.166 267.798 199.382 266.367 198.043 C 265.003 196.6 264.034 194.837 263.555 192.921 C 261.171 185.341 261.647 177.219 262.132 169.302 C 262.903 156.717 264.524 143.826 268.799 131.922 Z" opacity="0.1" style=""/>
  <path d="M 229.991 362.582 C 230.658 365.315 231.755 367.939 232.374 370.68 C 232.826 373.042 233.091 375.435 233.169 377.838 L 233.852 389.992 C 234.019 392.874 234.154 395.905 232.851 398.489 C 231.953 400.282 230.396 401.786 229.951 403.736 C 229.252 406.79 231.469 409.68 233.55 412.053 L 243.769 423.722 C 246.947 427.379 250.467 431.225 255.211 432.47 C 255.916 432.706 256.676 432.734 257.396 432.548 C 258.715 432.117 259.359 430.543 259.168 429.181 C 258.869 427.835 258.245 426.58 257.349 425.523 C 254.671 421.819 251.786 418.177 250.07 413.964 C 247.861 408.607 247.631 402.679 247.766 396.899 C 248.306 373.327 254.321 350.028 253.638 326.416 C 248.417 326.025 242.99 325.171 237.746 325.218 C 233.082 325.265 233.638 329.917 232.827 333.637 C 231.747 338.508 230.444 343.34 229.72 348.282 C 229.343 350.689 229.159 353.122 229.172 355.557 C 229.172 357.93 229.991 360.303 229.991 362.582 Z" fill="#fbbebe" style=""/>
  <path d="M 229.991 362.582 C 230.658 365.315 231.755 367.939 232.374 370.68 C 232.826 373.042 233.091 375.435 233.169 377.838 L 233.852 389.992 C 234.019 392.874 234.154 395.905 232.851 398.489 C 231.953 400.282 230.396 401.786 229.951 403.736 C 229.252 406.79 231.469 409.68 233.55 412.053 L 243.769 423.722 C 246.947 427.379 250.467 431.225 255.211 432.47 C 255.916 432.706 256.676 432.734 257.396 432.548 C 258.715 432.117 259.359 430.543 259.168 429.181 C 258.869 427.835 258.245 426.58 257.349 425.523 C 254.671 421.819 251.786 418.177 250.07 413.964 C 247.861 408.607 247.631 402.679 247.766 396.899 C 248.306 373.327 254.321 350.028 253.638 326.416 C 248.417 326.025 242.99 325.171 237.746 325.218 C 233.082 325.265 233.638 329.917 232.827 333.637 C 231.747 338.508 230.444 343.34 229.72 348.282 C 229.343 350.689 229.159 353.122 229.172 355.557 C 229.172 357.93 229.991 360.303 229.991 362.582 Z" opacity="0.05" style=""/>
  <path d="M 233.082 398.795 C 230.698 398.309 228.219 399.578 226.725 401.489 C 225.346 403.471 224.554 405.792 224.436 408.192 C 224.262 409.206 224.38 410.249 224.778 411.2 C 225.151 411.944 225.811 412.507 226.24 413.22 C 226.668 414.052 226.938 414.955 227.035 415.883 C 227.925 421.279 228.815 426.682 229.275 432.125 C 229.418 433.785 229.554 435.54 230.539 436.894 C 231.524 438.249 233.717 438.907 234.917 437.772 C 233.674 431.558 233.053 425.239 233.066 418.906 C 235.855 418.53 238.286 420.691 240.106 422.821 C 241.968 424.981 243.675 427.265 245.215 429.658 C 246.51 431.925 248.009 434.072 249.697 436.072 C 253.41 439.953 258.827 441.779 264.174 440.951 C 265.096 440.168 264.421 438.555 265.183 437.638 C 265.501 437.352 265.841 437.09 266.201 436.855 C 267.162 436.025 267.059 434.506 266.63 433.331 C 265.239 429.486 261.496 427.066 257.992 424.873 C 251.636 420.957 245.199 417.042 238.803 413.251 C 236.363 411.763 234.506 409.506 233.535 406.845 C 233.304 406.164 232.303 398.536 233.082 398.795 Z" fill="#3f3d56" style=""/>
  <path d="M 233.082 398.795 C 230.698 398.309 228.219 399.578 226.725 401.489 C 225.346 403.471 224.554 405.792 224.436 408.192 C 224.262 409.206 224.38 410.249 224.778 411.2 C 225.151 411.944 225.811 412.507 226.24 413.22 C 226.668 414.052 226.938 414.955 227.035 415.883 C 227.925 421.279 228.815 426.682 229.275 432.125 C 229.418 433.785 229.554 435.54 230.539 436.894 C 231.524 438.249 233.717 438.907 234.917 437.772 C 233.674 431.558 233.053 425.239 233.066 418.906 C 235.855 418.53 238.286 420.691 240.106 422.821 C 241.968 424.981 243.675 427.265 245.215 429.658 C 246.51 431.925 248.009 434.072 249.697 436.072 C 253.41 439.953 258.827 441.779 264.174 440.951 C 265.096 440.168 264.421 438.555 265.183 437.638 C 265.501 437.352 265.841 437.09 266.201 436.855 C 267.162 436.025 267.059 434.506 266.63 433.331 C 265.239 429.486 261.496 427.066 257.992 424.873 C 251.636 420.957 245.199 417.042 238.803 413.251 C 236.363 411.763 234.506 409.506 233.535 406.845 C 233.304 406.164 232.303 398.536 233.082 398.795 Z" opacity="0.05" style=""/>
  <path d="M 232.049 355.737 C 230.769 371.486 234.353 387.165 237.539 402.648 C 237.838 403.885 238.001 405.151 238.024 406.422 C 237.89 408.007 237.624 409.579 237.229 411.121 C 236.022 417.512 237.563 424.059 239.097 430.379 C 240.161 434.757 241.663 439.698 245.803 441.609 C 248.719 442.964 252.16 442.392 255.338 441.758 C 256.382 441.649 257.376 441.256 258.207 440.622 C 259.351 439.565 259.391 437.819 259.295 436.284 C 258.199 418.898 249.268 402.225 251.008 384.886 C 251.294 382.02 251.874 379.185 252.351 376.334 C 254.814 361.595 254.496 346.426 257.674 331.836 C 257.832 331.325 257.832 330.78 257.674 330.269 C 257.405 329.769 256.978 329.367 256.459 329.126 C 253.566 327.419 250.475 325.907 247.138 325.445 C 244.532 325.085 241.258 325.367 239.065 326.957 C 236.872 328.546 236.618 332.219 235.942 334.843 C 234.049 341.687 232.746 348.677 232.049 355.737 Z" fill="#fbbebe" style=""/>
  <path d="M 236.22 444.178 C 236.207 444.393 236.248 444.608 236.339 444.804 C 236.399 444.883 236.494 444.926 236.594 444.922 C 237.261 444.922 237.921 444.922 238.588 444.922 C 238.668 444.139 238.668 443.355 238.676 442.572 L 238.676 437.216 C 238.676 432.971 238.676 428.711 238.485 424.489 C 238.487 424.333 238.463 424.176 238.413 424.027 C 238.367 423.935 238.288 423.862 238.191 423.824 C 237.722 423.605 236.602 422.923 236.204 423.706 C 235.807 424.489 235.982 426.956 235.958 427.982 C 235.894 431.423 235.894 434.864 235.958 438.304 C 236.048 440.262 236.135 442.22 236.22 444.178 Z" fill="#3f3d56" style=""/>
  <path d="M 271.111 257.844 C 271.094 258.422 271.145 259.001 271.262 259.567 C 271.548 261.212 271.906 262.841 272.311 264.462 C 272.541 265.156 272.633 265.887 272.581 266.615 C 272.344 267.548 271.966 268.441 271.461 269.262 C 269.872 272.763 271.58 277.094 270.038 280.587 C 269.673 281.425 269.133 282.153 268.815 283.03 C 268.123 284.886 268.513 286.946 268.282 288.904 C 268.031 290.287 267.689 291.653 267.257 292.992 C 266.137 297.346 267.988 301.982 266.908 306.352 C 265.986 310.096 265.048 313.87 264.985 317.716 C 264.929 320.386 265.303 323.064 264.985 325.727 C 264.667 328.39 263.547 331.123 261.25 332.54 C 259.438 333.66 257.19 333.786 255.044 333.825 C 250.92 333.895 246.773 333.778 242.649 333.465 C 238.525 333.151 234.099 332.486 231.198 329.596 C 232.303 321.067 233.312 311.912 229.236 304.308 C 228.028 302.061 226.375 299.946 225.954 297.44 C 225.843 296.798 225.811 296.148 225.676 295.513 C 225.488 294.766 225.221 294.039 224.881 293.344 C 222.196 287.304 219.507 281.271 216.816 275.246 C 216.387 274.275 215.958 273.303 215.513 272.332 C 214.122 269.2 212.724 266.067 211.54 262.825 C 210.134 259.035 209.021 255.15 207.956 251.266 C 207.202 248.966 206.79 246.571 206.733 244.155 C 206.848 242.018 207.357 239.919 208.234 237.96 C 208.711 236.817 209.267 235.697 209.824 234.6 C 225.802 230.885 242.248 229.497 258.636 230.481 C 261.256 230.529 263.856 230.953 266.351 231.742 C 268.042 232.332 269.566 233.311 270.793 234.6 C 271.358 235.2 271.822 235.885 272.168 236.629 C 273.129 238.696 273.066 241.077 273.002 243.348 C 272.859 247.616 272.716 251.963 271.524 256.043 C 271.323 256.628 271.185 257.232 271.111 257.844 Z" fill="#3f3d56" style=""/>
  <path d="M 259.907 435.438 C 257.484 437.245 254.64 438.424 251.636 438.868 C 248.982 439.252 246.073 438.978 243.968 437.302 C 241.584 435.43 240.734 432.25 240.05 429.306 L 239.136 425.39 C 238.803 423.98 238.477 422.571 238.215 421.145 C 237.532 417.382 237.332 413.548 237.619 409.735 C 235.442 410.573 234.138 413.118 233.995 415.413 C 233.852 417.707 234.575 419.955 235.235 422.164 C 235.495 423.23 235.893 424.259 236.419 425.226 C 236.808 425.868 237.317 426.44 237.651 427.113 C 238.066 428.11 238.305 429.17 238.358 430.246 C 238.851 433.784 239.566 437.288 240.495 440.74 L 241.91 446.488 L 242.053 447.068 L 243.252 451.939 C 243.289 452.113 243.348 452.281 243.427 452.44 C 243.576 452.679 243.777 452.882 244.015 453.035 C 249.065 456.684 255.709 457.392 261.433 454.891 C 261.651 454.803 261.852 454.678 262.029 454.523 C 262.335 454.104 262.473 453.588 262.418 453.074 C 262.349 451.518 262.66 449.969 263.324 448.556 C 263.683 448.035 263.977 447.472 264.198 446.88 C 264.328 445.921 264.142 444.946 263.666 444.099 L 260.726 437.317 C 260.552 436.653 260.276 436.02 259.907 435.438 Z" fill="#3f3d56" style=""/>
  <path d="M 253.01 153.279 C 252.899 154.771 252.6 156.244 252.12 157.664 C 251.763 158.695 251.135 159.614 250.301 160.327 C 248.934 158.51 246.494 157.884 244.643 156.544 C 243.12 155.269 241.794 153.781 240.71 152.127 C 238.326 148.995 235.608 146.215 233.066 143.254 C 232.676 142.8 232.271 142.354 231.929 141.9 C 230.629 140.338 229.453 138.681 228.409 136.942 C 226.288 133.34 224.834 129.197 221.639 126.472 C 219.899 124.984 217.714 124.005 216.173 122.321 C 217.113 120.734 217.725 118.981 217.976 117.16 C 218.342 115.414 218.699 113.659 218.89 111.882 C 218.946 111.412 218.977 110.942 218.993 110.472 C 218.993 110.268 218.993 110.073 218.993 109.869 C 218.993 108.42 218.048 105.953 219.55 105.123 C 220.924 104.34 223.181 104.34 224.802 104.387 L 225.096 104.387 C 228.859 104.429 232.529 105.55 235.656 107.614 C 236.367 108.043 236.988 108.604 237.484 109.266 C 238.208 110.57 238.487 112.07 238.278 113.542 C 238.278 113.887 238.278 114.231 238.223 114.568 L 238.223 115.069 C 238.167 116.745 238.334 118.538 239.526 119.705 C 240.718 120.872 242.831 121.021 244.572 121.554 C 244.858 121.648 245.128 121.741 245.406 121.851 C 247.311 122.698 248.938 124.055 250.102 125.767 C 251.41 127.735 252.334 129.926 252.827 132.228 C 253.312 134.287 253.618 136.383 253.741 138.493 C 253.912 143.433 253.667 148.379 253.01 153.279 Z" fill="#fbbebe" style=""/>
  <path d="M 238.247 114.529 L 238.247 115.03 C 236.125 115.813 230.952 113.652 228.56 113.652 C 223.793 113.652 222.347 114.568 218.914 111.843 C 218.985 111.177 219.033 110.503 219.049 109.83 C 219.049 108.381 218.103 105.914 219.605 105.084 C 221.107 104.254 223.499 104.301 225.12 104.348 C 228.883 104.389 232.552 105.511 235.68 107.574 C 236.391 108.004 237.012 108.565 237.508 109.227 C 238.517 110.73 238.358 112.712 238.247 114.529 Z" opacity="0.1" style=""/>
  <path d="M 251.397 95.021 C 251.4 107.423 239.904 116.736 227.559 114.333 C 218.204 112.506 211.46 104.421 211.453 95.021 C 211.145 79.862 227.604 70.06 241.078 77.378 C 247.581 80.91 251.561 87.704 251.413 95.021 Z" fill="#fbbebe" style=""/>
  <path d="M 217.786 118.288 C 217.158 117.769 216.389 117.446 215.577 117.356 C 214.381 117.47 213.359 118.25 212.946 119.361 C 212.462 120.418 212.311 121.585 211.89 122.673 C 211.318 124.137 210.281 125.379 208.934 126.213 C 207.988 126.793 206.868 127.2 206.224 128.093 C 205.207 129.51 205.827 131.492 206.685 133.011 C 209.863 138.673 215.664 142.409 221.218 145.862 L 227.48 149.778 C 229.994 151.42 232.599 152.923 235.283 154.281 C 239.629 156.396 244.333 157.75 248.656 159.912 C 250.642 160.899 252.629 162.081 254.798 162.418 C 255.26 160.961 255.551 159.455 255.664 157.931 C 256.737 148.533 257.794 138.924 255.664 129.698 C 255.383 127.912 254.62 126.232 253.455 124.835 C 252.635 124.063 251.697 123.423 250.674 122.94 C 248.137 121.593 245.527 120.386 242.855 119.322 C 241.602 118.725 240.225 118.424 238.835 118.444 C 238.954 119.474 239.268 120.472 239.756 121.389 C 243.109 128.756 246.467 136.126 249.832 143.497 C 250.57 144.841 250.988 146.333 251.055 147.859 C 250.984 150.029 249.466 152.143 250.11 154.226 C 244.248 145.826 237.525 138.042 230.046 130.998 C 229.718 130.727 229.448 130.394 229.252 130.019 C 229.07 129.428 229.032 128.803 229.14 128.195 C 229.212 127.036 228.966 125.485 227.98 124.71 C 227.297 124.169 226.288 124.013 225.533 123.543 C 222.903 121.898 220.368 120.042 217.786 118.288 Z" fill="#6c63ff" style=""/>
  <path d="M 271.183 236.347 C 266.133 238.85 260.633 240.348 254.997 240.756 C 249.376 241.151 243.736 241.183 238.111 240.85 L 225.302 240.372 C 219.486 240.145 213.773 239.683 208.227 237.96 C 208.703 236.817 209.26 235.697 209.816 234.6 C 225.794 230.885 242.24 229.497 258.628 230.481 C 261.248 230.529 263.848 230.953 266.344 231.742 C 268.034 232.332 269.558 233.311 270.785 234.6 C 270.912 235.196 271.056 235.783 271.183 236.347 Z" opacity="0.1" style=""/>
  <path d="M 270.285 174.807 C 268.076 182.177 269.593 190.243 270.968 197.8 C 271.76 198.33 272.123 199.295 271.874 200.205 C 271.599 201.076 271.242 201.921 270.809 202.726 C 270.372 203.549 270.349 204.525 270.746 205.366 C 270.944 205.71 271.254 205.977 271.461 206.313 C 271.736 206.861 271.875 207.464 271.866 208.075 C 272.041 210.926 272.216 213.839 271.437 216.588 C 270.984 218.154 270.213 219.846 270.722 221.428 C 271.024 222.383 271.771 223.19 271.874 224.185 C 271.977 225.179 271.357 226.213 270.984 227.215 C 270.102 229.565 270.579 232.408 271.191 234.851 C 266.141 237.354 260.641 238.852 255.005 239.26 C 249.384 239.66 243.744 239.691 238.119 239.354 L 225.31 238.876 C 219.446 238.657 213.693 238.187 208.107 236.433 C 207.567 232.635 207.114 228.453 209.275 225.281 C 209.693 224.773 210.029 224.205 210.277 223.597 C 210.658 222.297 209.824 220.974 209.561 219.682 C 209.013 216.964 210.865 214.403 212.446 212.124 C 212.689 211.819 212.877 211.475 213.002 211.106 C 213.296 210.057 212.652 208.905 212.644 207.848 C 212.637 207.544 212.709 207.242 212.851 206.971 C 213.082 206.525 213.527 206.188 213.765 205.781 C 214.018 205.21 214.095 204.578 213.987 203.964 C 213.69 200.022 213.209 196.107 212.541 192.217 C 212.478 191.872 212.414 191.512 212.327 191.159 C 212.213 190.612 212.018 190.084 211.747 189.593 C 211.373 188.959 210.825 188.45 210.459 187.815 C 210.093 187.093 210.093 186.244 210.459 185.521 C 210.817 184.863 209.84 184.291 209.53 183.61 C 209.396 183.08 209.367 182.53 209.442 181.989 C 209.329 181.073 208.973 180.203 208.409 179.467 C 207.71 178.378 207.011 177.298 206.296 176.225 C 203.117 171.365 199.804 166.587 196.355 161.893 C 194.718 159.646 193.042 157.406 191.349 155.197 C 189.975 153.412 188.56 151.603 187.869 149.465 C 187.747 149.094 187.65 148.714 187.583 148.329 C 187.198 146.277 187.497 144.156 188.433 142.283 C 189.359 140.73 190.423 139.26 191.611 137.89 C 192.736 136.21 193.956 134.594 195.267 133.05 C 196.602 131.496 198.52 130.544 200.582 130.411 C 201.766 130.411 203.149 130.74 203.967 129.902 C 204.269 129.604 204.428 129.205 204.762 128.915 C 205.628 128.132 207.051 128.657 208.091 129.236 L 228.099 140.38 L 231.341 142.197 C 231.929 142.542 232.533 142.886 233.121 143.239 C 235.897 144.836 238.557 146.62 241.083 148.58 C 244.786 151.509 248.894 154.203 252.12 157.633 C 252.43 157.954 252.724 158.275 253.01 158.612 C 253.593 154.602 254.175 150.588 254.758 146.567 C 254.973 145.41 255.051 144.233 254.989 143.059 C 254.837 141.904 254.549 140.772 254.131 139.683 C 254.003 139.292 253.868 138.9 253.741 138.509 C 253.018 136.378 252.295 134.256 251.58 132.126 C 250.523 128.993 249.395 125.759 247.011 123.457 C 246.432 122.971 245.899 122.434 245.422 121.851 C 245.422 121.851 245.422 121.851 245.422 121.851 C 244.963 121.261 244.815 120.491 245.024 119.776 L 261.878 124.96 C 262.672 125.211 263.467 125.454 264.262 125.743 C 265.194 126.145 266.066 126.672 266.852 127.31 C 269.431 129.333 270.743 132.54 270.309 135.76 C 270.142 136.801 269.776 137.788 269.554 138.814 C 269.164 140.67 268.56 142.808 269.379 144.531 C 270.197 146.254 270.968 147.773 271.707 149.394 C 272.346 150.629 272.878 151.916 273.296 153.24 C 273.756 155.049 273.941 156.914 273.845 158.776 C 273.744 162.933 273.016 167.05 271.683 170.993 C 271.183 172.239 270.682 173.507 270.285 174.807 Z" fill="#454b69" style=""/>
  <polygon points="235.894 184.142 275.855 180.438 282.839 179.663 276.419 181.903 235.894 184.142" fill="#3f3d56" style=""/>
  <polygon points="234.997 186.053 234.997 183.085 277.357 181.026 279.423 182.772 234.997 186.053" fill="#3f3d56" style=""/>
  <path d="M 235.132 180.407 C 236.022 180.172 236.975 180.219 237.873 180.007 C 239.041 179.733 240.09 179.029 241.282 178.88 C 242.016 178.823 242.756 178.875 243.475 179.036 L 248.958 179.976 C 249.379 180.054 249.871 180.18 250.022 180.579 C 250.104 180.946 249.976 181.328 249.689 181.574 C 248.703 182.6 247.13 182.748 245.716 182.835 L 241.894 183.062 C 241.149 183.05 240.413 183.217 239.748 183.547 C 239.087 183.92 238.788 184.702 239.033 185.411 C 239.237 185.753 239.542 186.026 239.907 186.194 C 241.43 187.021 243.181 187.348 244.905 187.126 C 246.298 186.865 247.665 186.483 248.989 185.983 C 252.351 184.919 255.9 184.549 259.415 184.894 C 260.328 184.98 261.393 185.239 261.719 186.085 C 261.894 186.688 261.757 187.338 261.353 187.823 C 259.987 189.695 257.269 189.758 254.997 190.267 C 252.823 190.755 250.813 191.783 249.156 193.25 C 249.665 194.276 249.244 195.498 248.735 196.516 C 248.16 197.695 247.473 198.817 246.685 199.868 C 246.26 200.521 245.664 201.049 244.961 201.395 C 244.498 201.553 244.012 201.638 243.523 201.646 C 238.774 201.922 234.01 201.66 229.323 200.863 C 228.817 200.827 228.336 200.629 227.956 200.299 C 227.714 199.981 227.563 199.605 227.519 199.21 C 227.035 196.861 226.606 194.511 226.24 192.107 C 225.883 190.617 226.028 189.053 226.653 187.651 C 227.241 186.562 228.163 186.21 229.101 185.474 C 231.135 183.884 232.438 181.112 235.132 180.407 Z" fill="#fbbebe" style=""/>
  <path d="M 286.741 131.429 L 276.824 179.906 C 276.476 181.479 277.799 182.922 279.423 182.741 L 316.824 179.122 C 317.884 179.03 318.752 178.256 318.954 177.227 L 328.116 132.361 C 328.439 130.877 327.271 129.484 325.732 129.518 L 289.101 129.518 C 287.949 129.509 286.955 130.314 286.741 131.429 Z" fill="#3f3d56" style=""/>
  <path d="M 305.35 189.139 C 307.734 187.659 308.41 184.667 309.498 182.138 C 310.372 180.283 311.375 178.49 312.502 176.773 C 313.455 175.207 314.409 173.335 313.654 171.683 C 313.058 170.628 312.074 169.841 310.905 169.482 C 309.849 168.983 308.658 168.837 307.512 169.067 C 306.225 169.411 305.271 170.461 304.405 171.455 L 301.322 174.98 C 300 176.668 298.412 178.136 296.618 179.326 C 295.488 179.944 294.294 180.441 293.058 180.806 C 290.849 181.527 288.608 182.161 286.344 182.694 C 285.041 182.944 283.77 183.333 282.553 183.853 C 282.06 184.033 281.659 184.399 281.441 184.871 C 281.342 185.458 281.481 186.06 281.83 186.547 C 282.625 187.98 283.507 190.901 285.136 191.41 C 286.687 191.788 288.269 192.032 289.864 192.138 C 291.453 192.303 292.653 191.676 294.059 191.089 C 295.833 190.425 297.725 190.126 299.621 190.212 C 301.242 190.18 304.071 190.408 305.35 189.139 Z" fill="#fbbebe" style=""/>
  <path d="M 284.874 182.568 C 284.874 182.568 286.28 191.896 295.1 190.87 C 295.1 190.87 290.404 192.71 290.897 193.744 C 291.389 194.778 280.011 191.731 280.011 191.731 L 279.423 186.868 C 279.423 186.868 279.049 184.182 279.423 184.111 C 279.796 184.041 284.874 182.568 284.874 182.568 Z" fill="#454b69" style=""/>
  <path d="M 284.874 182.568 C 284.874 182.568 286.28 191.896 295.1 190.87 C 295.1 190.87 290.404 192.71 290.897 193.744 C 291.389 194.778 280.011 191.731 280.011 191.731 L 279.423 186.868 C 279.423 186.868 279.049 184.182 279.423 184.111 C 279.796 184.041 284.874 182.568 284.874 182.568 Z" opacity="0.1" style=""/>
  <path d="M 244.111 143.591 C 244.981 144.023 245.696 144.706 246.161 145.549 C 246.901 146.708 247.461 147.97 247.821 149.293 C 248.258 150.859 248.465 152.699 249.673 153.858" opacity="0.1" style=""/>
  <path d="M 236.649 203.4 L 222.728 203.87 C 221.544 203.909 220.082 204.136 219.708 205.248 C 219.597 205.601 219.613 205.984 219.502 206.337 C 219.113 207.582 217.42 207.731 216.093 207.723 C 214.941 207.723 213.789 207.77 212.644 207.856 C 212.637 207.551 212.709 207.25 212.851 206.979 C 213.082 206.533 213.527 206.196 213.765 205.789 C 214.018 205.218 214.095 204.586 213.987 203.972 C 213.69 200.03 213.209 196.114 212.541 192.224 C 212.478 191.88 212.414 191.52 212.327 191.167 C 213.404 190.467 214.666 190.091 215.958 190.087 C 217.102 190.212 218.151 190.87 219.295 190.815 C 221.282 190.713 222.656 188.528 224.643 188.403 C 225.067 188.433 225.493 188.383 225.898 188.254 C 226.526 187.941 226.629 187.118 226.955 186.508 C 227.432 185.599 228.767 185.38 229.776 185.615 C 229.748 187.689 229.883 189.763 230.181 191.817 C 230.281 192.717 230.494 193.601 230.817 194.449 C 231.195 195.307 231.67 196.121 232.231 196.876 C 233.725 199.069 235.156 201.191 236.649 203.4 Z" opacity="0.1" style=""/>
  <path d="M 190.388 145.017 C 187.917 145.627 186.16 147.914 185.437 150.326 C 184.714 152.738 184.841 155.307 184.913 157.821 C 185.156 167.151 184.51 176.483 182.982 185.693 C 182.251 190.11 181.313 194.543 181.592 199.007 C 181.743 201.426 182.307 203.925 183.88 205.789 C 186.367 208.718 190.69 209.321 194.567 209.172 C 201.528 208.905 208.362 206.893 215.33 206.94 C 216.657 206.94 218.342 206.791 218.739 205.546 C 218.85 205.201 218.826 204.817 218.946 204.465 C 219.311 203.353 220.773 203.118 221.965 203.079 L 235.887 202.617 C 234.393 200.448 232.962 198.317 231.469 196.148 C 230.909 195.39 230.432 194.576 230.046 193.72 C 229.727 192.869 229.514 191.983 229.411 191.081 C 229.115 189.03 228.982 186.959 229.013 184.886 C 228.004 184.659 226.629 184.886 226.184 185.771 C 225.859 186.39 225.755 187.205 225.136 187.518 C 224.73 187.655 224.299 187.706 223.872 187.667 C 221.894 187.8 220.519 190.016 218.532 190.087 C 217.388 190.141 216.331 189.476 215.195 189.358 C 213.391 189.17 211.778 190.345 210.126 191.065 C 207.385 192.248 204.268 192.248 201.528 191.065 C 201.123 190.893 200.67 190.392 201.004 190.094 C 201.337 189.797 201.6 190.047 201.87 189.922 C 202.378 189.671 202.005 188.927 201.727 188.442 C 200.932 187.04 201.488 185.309 202.259 183.853 C 203.03 182.396 204.039 181.026 204.063 179.412 C 204.014 178.891 204.014 178.367 204.063 177.846 C 204.313 177.111 204.71 176.432 205.231 175.849 C 206.581 173.698 206.95 171.085 206.248 168.652 C 205.529 166.253 204.35 164.012 202.776 162.05 C 198.596 156.411 192.716 151.65 190.388 145.017 Z" fill="#454b69" style=""/>
  <path d="M 228.044 140.357 L 231.286 142.174 C 230.292 142.629 229.273 143.028 228.235 143.372 C 220.924 145.792 223.531 149.152 215.823 149.058 C 210.571 149.003 204.579 148.603 200.9 152.3 C 199.168 154.038 198.294 156.419 197.468 158.722 C 197.086 159.771 196.713 160.82 196.339 161.854 C 194.702 159.607 193.026 157.367 191.333 155.158 C 189.959 153.373 188.544 151.564 187.853 149.426 C 187.1 147.05 187.302 144.479 188.417 142.244 C 189.343 140.69 190.407 139.22 191.596 137.851 C 192.72 136.171 193.94 134.555 195.251 133.011 C 196.586 131.457 198.505 130.505 200.567 130.372 C 201.751 130.372 203.133 130.701 203.952 129.863 C 204.254 129.565 204.412 129.166 204.746 128.876 C 205.612 128.093 207.035 128.617 208.076 129.197 Z" opacity="0.1" style=""/>
  <path d="M 247.384 80.501 C 247.277 79.564 247.042 78.644 246.685 77.768 C 246.342 77.094 245.906 76.469 245.39 75.912 C 241.984 72.129 237.109 69.946 231.977 69.905 C 231.535 69.877 231.093 69.947 230.682 70.109 C 230.579 70.154 230.483 70.212 230.396 70.281 C 226.733 67.845 222.45 65.457 218.477 64.509 C 215.72 63.872 212.847 63.909 210.11 64.619 C 206.78 65.606 205.62 68.221 204.206 71.08 C 201.93 75.677 198.47 79.604 194.17 82.467 C 191.405 84.307 188.123 85.889 186.796 88.904 C 185.557 91.716 186.399 94.942 186.693 97.997 C 187.391 106.378 183.793 114.549 177.102 119.768 C 173.32 122.658 168.274 125.07 167.472 129.714 C 166.899 133.019 168.783 136.191 170.205 139.237 C 173.216 145.674 174.249 153.537 170.713 159.708 C 169.704 161.463 168.33 163.068 167.813 165.01 C 166.868 168.464 168.878 172.215 171.874 174.22 C 174.869 176.225 178.644 176.773 182.267 176.757 C 184.905 176.757 187.758 176.366 189.625 174.541 C 190.785 173.224 191.63 171.666 192.096 169.983 C 193.622 165.728 195.15 161.476 196.681 157.226 C 197.476 154.923 198.381 152.527 200.114 150.804 C 203.785 147.108 209.784 147.499 215.028 147.562 C 222.744 147.656 220.138 144.304 227.44 141.876 C 231.731 140.451 236.395 138.023 237.396 133.669 C 238.397 129.314 235.426 125.367 232.827 121.843 C 230.877 119.233 229.039 116.531 227.313 113.738 C 225.62 111.044 224.007 108.201 223.538 105.068 C 222.744 99.86 235.577 96.955 237.5 92.045 C 238.048 90.659 238.51 89.242 238.882 87.8 C 239.804 87.73 240.654 87.643 241.266 87.62 C 243.721 87.51 246.479 86.563 247.321 84.292 C 247.663 83.053 247.686 81.75 247.384 80.501 Z" fill="#3f3d56" style=""/>
  <g opacity="0.1" transform="matrix(0.7946, 0, 0, 0.783144, 105.905473, -110.632951)" style="">
    <path d="M223.9,301.59a3.93,3.93,0,0,1,1.63-.25h.23a41.66,41.66,0,0,0-11-4.88l-.93-.19a66.1,66.1,0,0,1,9.76,5.54A2.16,2.16,0,0,1,223.9,301.59Z" transform="translate(-73 -73.01)"/>
    <path d="M251.05,316.88a13.35,13.35,0,0,0-.88-3.49,10.19,10.19,0,0,0-1.63-2.37,22.85,22.85,0,0,0-13.11-7.33,22.43,22.43,0,0,1,7,5.32,9.75,9.75,0,0,1,1.63,2.36,12.76,12.76,0,0,1,.88,3.5,9.78,9.78,0,0,1-.06,4.84c-1.05,2.9-4.53,4.11-7.61,4.24-.75,0-1.83.15-3,.23a45.85,45.85,0,0,1-1.74,5.43c-2.42,6.26-18.54,10-17.56,16.63.58,4,2.62,7.63,4.74,11.07s4.5,7,6.94,10.35c3.27,4.5,7,9.67,5.75,15.1s-7.12,8.66-12.52,10.48c-9.2,3.1-5.92,7.38-15.62,7.26-6.61-.08-14.16-.58-18.78,4.14-2.18,2.22-3.28,5.26-4.32,8.2l-5.77,16.29a15,15,0,0,1-3.1,5.82c-2.36,2.33-5.95,2.81-9.26,2.82a33.12,33.12,0,0,1-5.63-.42c3.52,1.91,7.71,2.46,11.75,2.44,3.32,0,6.91-.5,9.26-2.83a14.84,14.84,0,0,0,3.11-5.82q2.88-8.14,5.77-16.29c1-2.94,2.14-6,4.32-8.2,4.62-4.72,12.17-4.22,18.77-4.14,9.71.12,6.43-4.16,15.62-7.26,5.4-1.82,11.27-4.92,12.53-10.48s-2.48-10.6-5.75-15.1q-3.68-5-6.94-10.35c-2.13-3.44-4.16-7.07-4.75-11.07-1-6.65,15.15-10.36,17.57-16.63a46.29,46.29,0,0,0,1.74-5.42c1.16-.09,2.23-.2,3-.23,3.09-.14,6.56-1.35,7.62-4.25A9.78,9.78,0,0,0,251.05,316.88Z" transform="translate(-73 -73.01)"/>
  </g>
</svg>